<mxfile host="app.diagrams.net" modified="2023-10-23T06:37:51.955Z" agent="Mozilla/5.0 (Windows NT 10.0; Win64; x64) AppleWebKit/537.36 (KHTML, like Gecko) Chrome/118.0.0.0 Safari/537.36" etag="QPm1yhzircePvDflQnBy" version="21.6.9" type="github">
  <diagram name="Page-1" id="WOk6i9FSgshG5BQC_wi6">
    <mxGraphModel dx="1034" dy="470" grid="1" gridSize="10" guides="1" tooltips="1" connect="1" arrows="1" fold="1" page="1" pageScale="1" pageWidth="827" pageHeight="1169" math="0" shadow="0">
      <root>
        <mxCell id="0" />
        <mxCell id="1" parent="0" />
        <mxCell id="1P3FuZae-kKjxpet_ux2-1" value="&lt;font style=&quot;font-size: 14px;&quot;&gt;Stegenographic &lt;br&gt;Encoder&lt;br&gt;f(I,H,K)&lt;br&gt;&lt;/font&gt;" style="rounded=1;whiteSpace=wrap;html=1;" vertex="1" parent="1">
          <mxGeometry x="344" y="80" width="140" height="80" as="geometry" />
        </mxCell>
        <mxCell id="1P3FuZae-kKjxpet_ux2-2" value="Image File (I)" style="rounded=1;whiteSpace=wrap;html=1;" vertex="1" parent="1">
          <mxGeometry x="170" y="70" width="80" height="30" as="geometry" />
        </mxCell>
        <mxCell id="1P3FuZae-kKjxpet_ux2-4" value="Hidden Message (H)" style="rounded=1;whiteSpace=wrap;html=1;" vertex="1" parent="1">
          <mxGeometry x="170" y="160" width="90" height="40" as="geometry" />
        </mxCell>
        <mxCell id="1P3FuZae-kKjxpet_ux2-8" value="" style="endArrow=classic;html=1;rounded=0;" edge="1" parent="1">
          <mxGeometry width="50" height="50" relative="1" as="geometry">
            <mxPoint x="260" y="90" as="sourcePoint" />
            <mxPoint x="330" y="110" as="targetPoint" />
          </mxGeometry>
        </mxCell>
        <mxCell id="1P3FuZae-kKjxpet_ux2-9" value="" style="endArrow=classic;html=1;rounded=0;" edge="1" parent="1">
          <mxGeometry width="50" height="50" relative="1" as="geometry">
            <mxPoint x="270" y="180" as="sourcePoint" />
            <mxPoint x="340" y="150" as="targetPoint" />
          </mxGeometry>
        </mxCell>
        <mxCell id="1P3FuZae-kKjxpet_ux2-10" value="Communication&lt;br&gt;Channel" style="rounded=1;whiteSpace=wrap;html=1;" vertex="1" parent="1">
          <mxGeometry x="550" y="170" width="170" height="50" as="geometry" />
        </mxCell>
        <mxCell id="1P3FuZae-kKjxpet_ux2-11" value="&lt;font style=&quot;font-size: 14px;&quot;&gt;Stegenographic &lt;br&gt;Decoder&lt;br&gt;&lt;/font&gt;" style="rounded=1;whiteSpace=wrap;html=1;" vertex="1" parent="1">
          <mxGeometry x="344" y="260" width="140" height="80" as="geometry" />
        </mxCell>
        <mxCell id="1P3FuZae-kKjxpet_ux2-12" value="" style="endArrow=classic;html=1;rounded=0;exitX=1;exitY=0.5;exitDx=0;exitDy=0;entryX=0.5;entryY=0;entryDx=0;entryDy=0;" edge="1" parent="1" target="1P3FuZae-kKjxpet_ux2-10">
          <mxGeometry width="50" height="50" relative="1" as="geometry">
            <mxPoint x="490" y="110" as="sourcePoint" />
            <mxPoint x="641" y="180" as="targetPoint" />
            <Array as="points">
              <mxPoint x="635" y="110" />
            </Array>
          </mxGeometry>
        </mxCell>
        <mxCell id="1P3FuZae-kKjxpet_ux2-13" value="" style="endArrow=classic;html=1;rounded=0;exitX=0.5;exitY=1;exitDx=0;exitDy=0;entryX=1;entryY=0.5;entryDx=0;entryDy=0;" edge="1" parent="1" source="1P3FuZae-kKjxpet_ux2-10" target="1P3FuZae-kKjxpet_ux2-11">
          <mxGeometry width="50" height="50" relative="1" as="geometry">
            <mxPoint x="560" y="300" as="sourcePoint" />
            <mxPoint x="705" y="360" as="targetPoint" />
            <Array as="points">
              <mxPoint x="630" y="300" />
            </Array>
          </mxGeometry>
        </mxCell>
        <mxCell id="1P3FuZae-kKjxpet_ux2-15" style="edgeStyle=orthogonalEdgeStyle;rounded=0;orthogonalLoop=1;jettySize=auto;html=1;exitX=0.5;exitY=0;exitDx=0;exitDy=0;entryX=0.5;entryY=1;entryDx=0;entryDy=0;" edge="1" parent="1" source="1P3FuZae-kKjxpet_ux2-14" target="1P3FuZae-kKjxpet_ux2-1">
          <mxGeometry relative="1" as="geometry" />
        </mxCell>
        <mxCell id="1P3FuZae-kKjxpet_ux2-16" style="edgeStyle=orthogonalEdgeStyle;rounded=0;orthogonalLoop=1;jettySize=auto;html=1;exitX=0.5;exitY=1;exitDx=0;exitDy=0;entryX=0.5;entryY=0;entryDx=0;entryDy=0;" edge="1" parent="1" source="1P3FuZae-kKjxpet_ux2-14" target="1P3FuZae-kKjxpet_ux2-11">
          <mxGeometry relative="1" as="geometry" />
        </mxCell>
        <mxCell id="1P3FuZae-kKjxpet_ux2-14" value="Key(K)" style="rounded=1;whiteSpace=wrap;html=1;" vertex="1" parent="1">
          <mxGeometry x="379" y="190" width="70" height="30" as="geometry" />
        </mxCell>
        <mxCell id="1P3FuZae-kKjxpet_ux2-17" value="Stegano object" style="rounded=1;whiteSpace=wrap;html=1;" vertex="1" parent="1">
          <mxGeometry x="570" y="310" width="70" height="30" as="geometry" />
        </mxCell>
        <mxCell id="1P3FuZae-kKjxpet_ux2-19" value="" style="endArrow=classic;html=1;rounded=0;entryX=1;entryY=0.75;entryDx=0;entryDy=0;" edge="1" parent="1">
          <mxGeometry width="50" height="50" relative="1" as="geometry">
            <mxPoint x="550" y="324.5" as="sourcePoint" />
            <mxPoint x="504" y="324.5" as="targetPoint" />
          </mxGeometry>
        </mxCell>
      </root>
    </mxGraphModel>
  </diagram>
</mxfile>
